<mxfile host="app.diagrams.net" modified="2020-07-18T04:34:40.239Z" agent="5.0 (X11; Linux x86_64) AppleWebKit/537.36 (KHTML, like Gecko) Chrome/83.0.4103.116 Safari/537.36" etag="Tca0XozQeWgIqQZ7Kgg2" version="13.4.6" type="github">
  <diagram name="Page-1" id="74e2e168-ea6b-b213-b513-2b3c1d86103e">
    <mxGraphModel dx="2583" dy="977" grid="1" gridSize="10" guides="1" tooltips="1" connect="1" arrows="1" fold="1" page="1" pageScale="1" pageWidth="1100" pageHeight="850" background="#ffffff" math="0" shadow="0">
      <root>
        <mxCell id="0" />
        <mxCell id="1" parent="0" />
        <mxCell id="vhvnNbZrrGLws2BLhChK-11" value="" style="html=1;points=[];perimeter=orthogonalPerimeter;" vertex="1" parent="1">
          <mxGeometry x="50" y="130" width="10" height="530" as="geometry" />
        </mxCell>
        <mxCell id="vhvnNbZrrGLws2BLhChK-14" value="" style="endArrow=classic;html=1;exitX=0.5;exitY=0.096;exitDx=0;exitDy=0;exitPerimeter=0;" edge="1" parent="1" source="vhvnNbZrrGLws2BLhChK-11">
          <mxGeometry width="50" height="50" relative="1" as="geometry">
            <mxPoint x="90" y="220" as="sourcePoint" />
            <mxPoint x="200" y="181" as="targetPoint" />
            <Array as="points">
              <mxPoint x="130" y="181" />
            </Array>
          </mxGeometry>
        </mxCell>
        <mxCell id="vhvnNbZrrGLws2BLhChK-15" value="Create Account" style="text;html=1;strokeColor=none;fillColor=none;align=center;verticalAlign=middle;whiteSpace=wrap;rounded=0;" vertex="1" parent="1">
          <mxGeometry x="80" y="160" width="100" height="20" as="geometry" />
        </mxCell>
        <mxCell id="vhvnNbZrrGLws2BLhChK-16" value="Unauthenticated User" style="shape=umlActor;verticalLabelPosition=bottom;verticalAlign=top;html=1;" vertex="1" parent="1">
          <mxGeometry x="40" y="10" width="30" height="60" as="geometry" />
        </mxCell>
        <mxCell id="vhvnNbZrrGLws2BLhChK-17" value="" style="endArrow=none;dashed=1;html=1;exitX=0.54;exitY=0.004;exitDx=0;exitDy=0;exitPerimeter=0;" edge="1" parent="1" source="vhvnNbZrrGLws2BLhChK-11">
          <mxGeometry width="50" height="50" relative="1" as="geometry">
            <mxPoint x="40" y="140" as="sourcePoint" />
            <mxPoint x="55" y="100" as="targetPoint" />
          </mxGeometry>
        </mxCell>
        <mxCell id="vhvnNbZrrGLws2BLhChK-18" value="" style="html=1;points=[];perimeter=orthogonalPerimeter;" vertex="1" parent="1">
          <mxGeometry x="200" y="130" width="10" height="200" as="geometry" />
        </mxCell>
        <mxCell id="vhvnNbZrrGLws2BLhChK-20" value="" style="endArrow=classic;html=1;" edge="1" parent="1">
          <mxGeometry width="50" height="50" relative="1" as="geometry">
            <mxPoint x="210" y="220" as="sourcePoint" />
            <mxPoint x="410" y="220" as="targetPoint" />
          </mxGeometry>
        </mxCell>
        <mxCell id="vhvnNbZrrGLws2BLhChK-21" value="Send Confiration Email" style="text;html=1;strokeColor=none;fillColor=none;align=center;verticalAlign=middle;whiteSpace=wrap;rounded=0;" vertex="1" parent="1">
          <mxGeometry x="250" y="200" width="130" height="20" as="geometry" />
        </mxCell>
        <mxCell id="vhvnNbZrrGLws2BLhChK-25" value="" style="shape=umlLifeline;participant=umlActor;perimeter=lifelinePerimeter;whiteSpace=wrap;html=1;container=1;collapsible=0;recursiveResize=0;verticalAlign=top;spacingTop=36;outlineConnect=0;" vertex="1" parent="1">
          <mxGeometry x="410" y="60" width="20" height="280" as="geometry" />
        </mxCell>
        <mxCell id="vhvnNbZrrGLws2BLhChK-26" value="Unauthenticated User Inbox" style="text;html=1;strokeColor=none;fillColor=none;align=center;verticalAlign=middle;whiteSpace=wrap;rounded=0;" vertex="1" parent="1">
          <mxGeometry x="305" y="90" width="230" height="20" as="geometry" />
        </mxCell>
        <mxCell id="vhvnNbZrrGLws2BLhChK-27" value="" style="endArrow=classic;html=1;" edge="1" parent="1">
          <mxGeometry width="50" height="50" relative="1" as="geometry">
            <mxPoint x="50" y="470" as="sourcePoint" />
            <mxPoint x="270" y="470" as="targetPoint" />
          </mxGeometry>
        </mxCell>
        <mxCell id="vhvnNbZrrGLws2BLhChK-28" value="Click on Confirmation Email link&amp;nbsp;" style="text;html=1;strokeColor=none;fillColor=none;align=center;verticalAlign=middle;whiteSpace=wrap;rounded=0;" vertex="1" parent="1">
          <mxGeometry x="80" y="440" width="150" height="20" as="geometry" />
        </mxCell>
        <mxCell id="vhvnNbZrrGLws2BLhChK-30" value="" style="html=1;points=[];perimeter=orthogonalPerimeter;" vertex="1" parent="1">
          <mxGeometry x="270" y="420" width="10" height="250" as="geometry" />
        </mxCell>
        <mxCell id="vhvnNbZrrGLws2BLhChK-31" value="Confirmation Email Service" style="html=1;dashed=0;whitespace=wrap;" vertex="1" parent="1">
          <mxGeometry x="177.5" y="397.5" width="195" height="22.5" as="geometry" />
        </mxCell>
        <mxCell id="vhvnNbZrrGLws2BLhChK-33" value="Confirmation Email Service" style="html=1;dashed=0;whitespace=wrap;" vertex="1" parent="1">
          <mxGeometry x="107.5" y="107.5" width="195" height="22.5" as="geometry" />
        </mxCell>
        <mxCell id="vhvnNbZrrGLws2BLhChK-35" value="" style="endArrow=classic;html=1;exitX=1.02;exitY=0.48;exitDx=0;exitDy=0;exitPerimeter=0;" edge="1" parent="1" source="vhvnNbZrrGLws2BLhChK-30">
          <mxGeometry width="50" height="50" relative="1" as="geometry">
            <mxPoint x="280" y="560" as="sourcePoint" />
            <mxPoint x="490" y="540" as="targetPoint" />
          </mxGeometry>
        </mxCell>
        <mxCell id="vhvnNbZrrGLws2BLhChK-36" value="" style="endArrow=none;dashed=1;html=1;" edge="1" parent="1">
          <mxGeometry width="50" height="50" relative="1" as="geometry">
            <mxPoint x="490" y="670" as="sourcePoint" />
            <mxPoint x="490" y="430" as="targetPoint" />
          </mxGeometry>
        </mxCell>
        <mxCell id="vhvnNbZrrGLws2BLhChK-39" value="End" style="text;html=1;strokeColor=none;fillColor=none;align=center;verticalAlign=middle;whiteSpace=wrap;rounded=0;" vertex="1" parent="1">
          <mxGeometry x="470" y="415" width="40" height="20" as="geometry" />
        </mxCell>
        <mxCell id="vhvnNbZrrGLws2BLhChK-40" value="Mark Email user as verified" style="text;html=1;strokeColor=none;fillColor=none;align=center;verticalAlign=middle;whiteSpace=wrap;rounded=0;" vertex="1" parent="1">
          <mxGeometry x="305" y="520" width="165" height="20" as="geometry" />
        </mxCell>
      </root>
    </mxGraphModel>
  </diagram>
</mxfile>
